<svg xmlns="http://www.w3.org/2000/svg" width="32" height="32" style=""><rect id="backgroundrect" width="100%" height="100%" x="0" y="0" fill="none" stroke="none"/>
  
<g class="currentLayer" style=""><title>Layer 1</title><path fill="#ffffff" id="picture" d="M28.180272102355957,5 H5.180272102355957 A1.50008,1.50008 0 0 0 3.680272102355957,6.5 v19 A1.50008,1.50008 0 0 0 5.180272102355957,27 h23 A1.50008,1.50008 0 0 0 29.680272102355957,25.5 V6.5 A1.50008,1.50008 0 0 0 28.180272102355957,5 zM26.680272102355957,18.5 l-4.79425,-5.2301 a0.99383,0.99383 0 0 0 -1.44428,-0.03137000000000001 l-5.34741,5.34741 L20.508392102355955,24 H17.680272102355957 l-4.79291,-4.793 a1.00022,1.00022 0 0 0 -1.41418,0 L6.680272102355957,24 V8 H26.680272102355957 zm-17.9,-6 a2.4,2.4 0 1 1 2.4,2.4 A2.4000500000000002,2.4000500000000002 0 0 1 8.780272102355957,12.5 z" class="" fill-opacity="1"/></g></svg>